<svg xmlns="http://www.w3.org/2000/svg" xml:space="preserve" width="128" height="128" data-id="lg_LpwdynbmD1TBuKX97q" data-version="1"><g data-padding="20"><path fill="#2563eb" stroke="null" stroke-width=".188" d="M64.194 82.115H41.49L34.487 64q.966-2.27 1.884-4.54t1.86-4.517 1.884-4.517 1.86-4.54H63.71q-.821 1.69-1.93 3.912l-2.248 4.492q-1.135 2.272-2.102 4.203-.964 1.933-1.568 3.115l-.605 1.185.628 1.376 1.643 3.6q1.014 2.222 2.223 4.805 1.207 2.584 2.365 5.096 1.16 2.512 2.078 4.445Zm-29.707 0H14.439v-36.23h20.048Zm58.206-36.23h20.868q-1.063 3.624-2.15 7.247l-2.173 7.245-2.174 7.246-2.173 7.245q-1.086 3.623-2.198 7.247H74.725q-1.788-6.04-3.599-12.077Q69.314 64 67.527 57.962q-1.788-6.04-3.623-12.077h21.544q.29 1.884.604 3.744t.604 3.744l.579 3.768.58 3.768q.29 1.884.604 3.743t.604 3.744h.096q.242-1.594.507-3.213.266-1.617.508-3.212.24-1.594.506-3.211l.532-3.238q.265-1.617.508-3.212.24-1.594.507-3.211.265-1.62.506-3.214Z" font-family="Climate Crisis" font-size="256.901"/><path fill="transparent" stroke="transparent" stroke-width=".195" d="M12.5 45.14h103v37.72h-103z"/></g></svg>