<svg xmlns="http://www.w3.org/2000/svg" xml:space="preserve" width="2000" height="193" data-id="lg_LpwdynbmD1TBuKX97q" data-version="1"><g data-padding="20"><path fill="#2563eb" stroke="null" stroke-width=".962" d="M1000.99 189.184H884.834L848.997 96.5q4.945-11.612 9.64-23.233 4.694-11.612 9.514-23.109t9.64-23.108 9.515-23.234h111.212q-4.204 8.649-9.88 20.02-5.686 11.372-11.496 22.984-5.811 11.621-10.756 21.502-4.935 9.89-8.023 15.94l-3.098 6.062 3.213 7.042q3.213 7.042 8.408 18.413 5.186 11.372 11.372 24.59 6.176 13.219 12.102 26.072 5.936 12.853 10.63 22.743Zm-151.993 0H746.423V3.816h102.574ZM1146.809 3.816h106.768q-5.436 18.539-10.996 37.078l-11.122 37.067-11.12 37.078q-5.561 18.529-11.122 37.067t-11.246 37.078h-143.096q-9.149-30.901-18.413-61.793-9.274-30.891-18.414-61.782-9.149-30.901-18.539-61.793h110.232q1.482 9.64 3.088 19.155t3.088 19.154l2.963 19.28q1.482 9.64 2.973 19.279 1.482 9.64 3.088 19.154t3.089 19.155h.49q1.241-8.158 2.598-16.442 1.356-8.273 2.597-16.432 1.232-8.158 2.588-16.431 1.366-8.284 2.723-16.567 1.356-8.273 2.597-16.432 1.232-8.158 2.598-16.431 1.356-8.284 2.588-16.442Z" font-family="Climate Crisis" font-size="256.901"/><path fill="transparent" stroke="transparent" d="M736.5 0h527v193h-527z"/></g></svg>